157c3185684e12cc8385ee7c3ef2fb4c *tests/data/fate/iamf-7_1_4.iamf
99851 tests/data/fate/iamf-7_1_4.iamf
#extradata 0:       34, 0x40a802c6
#extradata 1:       34, 0x40a802c6
#extradata 2:       34, 0x407c02c4
#extradata 3:       34, 0x407c02c4
#extradata 4:       34, 0x40a802c6
#extradata 5:       34, 0x40a802c6
#extradata 6:       34, 0x40a802c6
#tb 0: 1/44100
#media_type 0: audio
#codec_id 0: flac
#sample_rate 0: 44100
#channel_layout_name 0: stereo
#tb 1: 1/44100
#media_type 1: audio
#codec_id 1: flac
#sample_rate 1: 44100
#channel_layout_name 1: stereo
#tb 2: 1/44100
#media_type 2: audio
#codec_id 2: flac
#sample_rate 2: 44100
#channel_layout_name 2: mono
#tb 3: 1/44100
#media_type 3: audio
#codec_id 3: flac
#sample_rate 3: 44100
#channel_layout_name 3: mono
#tb 4: 1/44100
#media_type 4: audio
#codec_id 4: flac
#sample_rate 4: 44100
#channel_layout_name 4: stereo
#tb 5: 1/44100
#media_type 5: audio
#codec_id 5: flac
#sample_rate 5: 44100
#channel_layout_name 5: stereo
#tb 6: 1/44100
#media_type 6: audio
#codec_id 6: flac
#sample_rate 6: 44100
#channel_layout_name 6: stereo
0,          0,          0,     4608,     1399, 0x6e89566e
1,          0,          0,     4608,     1399, 0x6e89566e
2,          0,          0,     4608,     1396, 0x0dcb5677
3,          0,          0,     4608,     1396, 0x0dcb5677
4,          0,          0,     4608,     1399, 0x6e89566e
5,          0,          0,     4608,     1399, 0x6e89566e
6,          0,          0,     4608,     1399, 0x6e89566e
0,       4608,       4608,     4608,     1442, 0x6c3c5b13
1,       4608,       4608,     4608,     1442, 0x6c3c5b13
2,       4608,       4608,     4608,     1439, 0xc46b5ac5
3,       4608,       4608,     4608,     1439, 0xc46b5ac5
4,       4608,       4608,     4608,     1442, 0x6c3c5b13
5,       4608,       4608,     4608,     1442, 0x6c3c5b13
6,       4608,       4608,     4608,     1442, 0x6c3c5b13
0,       9216,       9216,     4608,     1380, 0xc497571b
1,       9216,       9216,     4608,     1380, 0xc497571b
2,       9216,       9216,     4608,     1377, 0x5b2a55fe
3,       9216,       9216,     4608,     1377, 0x5b2a55fe
4,       9216,       9216,     4608,     1380, 0xc497571b
5,       9216,       9216,     4608,     1380, 0xc497571b
6,       9216,       9216,     4608,     1380, 0xc497571b
0,      13824,      13824,     4608,     1383, 0x48e9510f
1,      13824,      13824,     4608,     1383, 0x48e9510f
2,      13824,      13824,     4608,     1380, 0x045550d3
3,      13824,      13824,     4608,     1380, 0x045550d3
4,      13824,      13824,     4608,     1383, 0x48e9510f
5,      13824,      13824,     4608,     1383, 0x48e9510f
6,      13824,      13824,     4608,     1383, 0x48e9510f
0,      18432,      18432,     4608,     1572, 0x9a514719
1,      18432,      18432,     4608,     1572, 0x9a514719
2,      18432,      18432,     4608,     1568, 0xa2bc45f4
3,      18432,      18432,     4608,     1568, 0xa2bc45f4
4,      18432,      18432,     4608,     1572, 0x9a514719
5,      18432,      18432,     4608,     1572, 0x9a514719
6,      18432,      18432,     4608,     1572, 0x9a514719
0,      23040,      23040,     4608,     1391, 0x74ac5014
1,      23040,      23040,     4608,     1391, 0x74ac5014
2,      23040,      23040,     4608,     1388, 0x96c85007
3,      23040,      23040,     4608,     1388, 0x96c85007
4,      23040,      23040,     4608,     1391, 0x74ac5014
5,      23040,      23040,     4608,     1391, 0x74ac5014
6,      23040,      23040,     4608,     1391, 0x74ac5014
0,      27648,      27648,     4608,     1422, 0x2f9d47c5
1,      27648,      27648,     4608,     1422, 0x2f9d47c5
2,      27648,      27648,     4608,     1419, 0x4d4d466a
3,      27648,      27648,     4608,     1419, 0x4d4d466a
4,      27648,      27648,     4608,     1422, 0x2f9d47c5
5,      27648,      27648,     4608,     1422, 0x2f9d47c5
6,      27648,      27648,     4608,     1422, 0x2f9d47c5
0,      32256,      32256,     4608,     1768, 0x2a044b99
1,      32256,      32256,     4608,     1768, 0x2a044b99
2,      32256,      32256,     4608,     1765, 0xacb84b24
3,      32256,      32256,     4608,     1765, 0xacb84b24
4,      32256,      32256,     4608,     1768, 0x2a044b99
5,      32256,      32256,     4608,     1768, 0x2a044b99
6,      32256,      32256,     4608,     1768, 0x2a044b99
0,      36864,      36864,     4608,     1534, 0xb0b35a3f
1,      36864,      36864,     4608,     1534, 0xb0b35a3f
2,      36864,      36864,     4608,     1531, 0x996458aa
3,      36864,      36864,     4608,     1531, 0x996458aa
4,      36864,      36864,     4608,     1534, 0xb0b35a3f
5,      36864,      36864,     4608,     1534, 0xb0b35a3f
6,      36864,      36864,     4608,     1534, 0xb0b35a3f
0,      41472,      41472,     4608,      926, 0xc26a5eae
1,      41472,      41472,     4608,      926, 0xc26a5eae
2,      41472,      41472,     4608,      923, 0xa7225edf
3,      41472,      41472,     4608,      923, 0xa7225edf
4,      41472,      41472,     4608,      926, 0xc26a5eae
5,      41472,      41472,     4608,      926, 0xc26a5eae
6,      41472,      41472,     4608,      926, 0xc26a5eae
